<svg width="741" height="382" xmlns="http://www.w3.org/2000/svg" xmlns:xlink="http://www.w3.org/1999/xlink" overflow="hidden"><defs><clipPath id="clip0"><rect x="119" y="239" width="741" height="382"/></clipPath></defs><g clip-path="url(#clip0)" transform="translate(-119 -239)"><rect x="447" y="240" width="286" height="366" fill="#7030A0" fill-opacity="0.101961"/><path d="M121.5 415.5C121.5 396.722 135.827 381.5 153.5 381.5 171.173 381.5 185.5 396.722 185.5 415.5 185.5 434.278 171.173 449.5 153.5 449.5 135.827 449.5 121.5 434.278 121.5 415.5Z" stroke="#00B050" stroke-width="3" stroke-linejoin="round" stroke-miterlimit="10" fill="none" fill-rule="evenodd"/><text fill="#00B050" font-family="Arial,Arial_MSFontService,sans-serif" font-weight="400" font-size="32" transform="translate(142.211 427)">S</text><path d="M250.5 415.5C250.5 396.722 264.827 381.5 282.5 381.5 300.173 381.5 314.5 396.722 314.5 415.5 314.5 434.278 300.173 449.5 282.5 449.5 264.827 449.5 250.5 434.278 250.5 415.5Z" stroke="#DC5924" stroke-width="3" stroke-linejoin="round" stroke-miterlimit="10" fill="none" fill-rule="evenodd"/><text fill="#C00000" font-family="Arial,Arial_MSFontService,sans-serif" font-weight="400" font-size="32" transform="translate(271.53 427)">E</text><path d="M364.5 415.5C364.5 396.722 378.827 381.5 396.5 381.5 414.173 381.5 428.5 396.722 428.5 415.5 428.5 434.278 414.173 449.5 396.5 449.5 378.827 449.5 364.5 434.278 364.5 415.5Z" stroke="#00B0F0" stroke-width="3" stroke-linejoin="round" stroke-miterlimit="10" fill="none" fill-rule="evenodd"/><text fill="#00B0F0" font-family="Arial,Arial_MSFontService,sans-serif" font-weight="400" font-size="32" transform="translate(391.578 427)">I</text><path d="M185.5 414.167 244.361 414.167 244.361 416.833 185.5 416.833ZM243.027 411.5 251.027 415.5 243.027 419.5Z"/><path d="M314.5 414.167 357.839 414.167 357.839 416.833 314.5 416.833ZM356.505 411.5 364.505 415.5 356.505 419.5Z"/><text font-family="Cambria Math,Cambria Math_MSFontService,sans-serif" font-weight="400" font-size="24" transform="translate(213.854 390)">ğ›½<tspan font-family="Arial,Arial_MSFontService,sans-serif" x="15.2267" y="0">I</tspan><tspan x="118.025" y="1">ğ‘ğ¸</tspan></text><path d="M508.5 294C508.5 275.499 522.827 260.5 540.5 260.5 558.173 260.5 572.5 275.499 572.5 294 572.5 312.502 558.173 327.5 540.5 327.5 522.827 327.5 508.5 312.502 508.5 294Z" stroke="#7030A0" stroke-width="3" stroke-linejoin="round" stroke-miterlimit="10" fill="none" fill-rule="evenodd"/><text fill="#7030A0" font-family="Arial,Arial_MSFontService,sans-serif" font-weight="400" font-size="24" transform="translate(527.485 302)">Z<tspan font-size="16" x="14.6666" y="5">Z</tspan></text><path d="M510.5 414.5C510.5 395.722 524.827 380.5 542.5 380.5 560.173 380.5 574.5 395.722 574.5 414.5 574.5 433.278 560.173 448.5 542.5 448.5 524.827 448.5 510.5 433.278 510.5 414.5Z" stroke="#7030A0" stroke-width="3" stroke-linejoin="round" stroke-miterlimit="10" fill="none" fill-rule="evenodd"/><text fill="#7030A0" font-family="Arial,Arial_MSFontService,sans-serif" font-weight="400" font-size="21" transform="translate(530.354 422)">Z<tspan font-size="14" x="13" y="4">H</tspan></text><path d="M637.5 414.5C637.5 395.722 651.603 380.5 669 380.5 686.397 380.5 700.5 395.722 700.5 414.5 700.5 433.278 686.397 448.5 669 448.5 651.603 448.5 637.5 433.278 637.5 414.5Z" stroke="#7030A0" stroke-width="3" stroke-linejoin="round" stroke-miterlimit="10" fill="none" fill-rule="evenodd"/><text fill="#7030A0" font-family="Arial,Arial_MSFontService,sans-serif" font-weight="400" font-size="21" transform="translate(656.774 422)">Z<tspan font-size="14" x="13.0001" y="4">C</tspan></text><path d="M508.5 532.5C508.5 513.722 522.827 498.5 540.5 498.5 558.173 498.5 572.5 513.722 572.5 532.5 572.5 551.278 558.173 566.5 540.5 566.5 522.827 566.5 508.5 551.278 508.5 532.5Z" stroke="#7030A0" stroke-width="3" stroke-linejoin="round" stroke-miterlimit="10" fill="none" fill-rule="evenodd"/><text fill="#7030A0" font-family="Arial,Arial_MSFontService,sans-serif" font-weight="400" font-size="21" transform="translate(528.068 540)">Z<tspan font-size="14" x="13" y="4">D</tspan></text><path d="M757.5 340.5C757.5 321.722 771.603 306.5 789 306.5 806.397 306.5 820.5 321.722 820.5 340.5 820.5 359.278 806.397 374.5 789 374.5 771.603 374.5 757.5 359.278 757.5 340.5Z" stroke="#FFC000" stroke-width="3" stroke-linejoin="round" stroke-miterlimit="10" fill="none" fill-rule="evenodd"/><text fill="#F5C201" font-family="Arial,Arial_MSFontService,sans-serif" font-weight="400" font-size="32" transform="translate(776.831 352)">R</text><path d="M766.5 532.5C766.5 513.722 780.827 498.5 798.5 498.5 816.173 498.5 830.5 513.722 830.5 532.5 830.5 551.278 816.173 566.5 798.5 566.5 780.827 566.5 766.5 551.278 766.5 532.5Z" stroke="#7F7F7F" stroke-width="3" stroke-linejoin="round" stroke-miterlimit="10" fill="none" fill-rule="evenodd"/><text fill="#7F7F7F" font-family="Arial,Arial_MSFontService,sans-serif" font-weight="400" font-size="32" transform="translate(786.173 544)">D</text><path d="M0.941066-0.944549 87.0836 84.8803 85.2015 86.7694-0.941066 0.944549ZM88.021 82.0499 90.8651 90.53 82.3746 87.7172Z" transform="matrix(1 0 0 -1 417.5 385.03)"/><path d="M0.00606613-1.33332 68.7975-1.02034 68.7854 1.6463-0.00606613 1.33332ZM67.4763-3.69305 75.4581 0.343307 67.4399 4.30687Z" transform="matrix(1 0 0 -1 435.5 414.843)"/><path d="M426.5 437.618 504.605 526.188 502.605 527.952 424.5 439.382ZM505.724 523.424 508.015 532.07 499.724 528.716Z"/><path d="M572.76 293.192 751.864 328.728 751.345 331.344 572.241 295.808ZM751.075 325.853 758.144 331.333 749.519 333.7Z"/><path d="M2.23513e-06-1.33333 55.9617-1.33324 55.9617 1.33343-2.23513e-06 1.33333ZM54.6284-3.99991 62.6283 0.000104987 54.6283 4.00009Z" transform="matrix(1 0 0 -1 574.5 414.5)"/><path d="M0.810782-1.05849 61.0415 45.0769 59.42 47.1939-0.810782 1.05849ZM61.6046 42.1491 65.5233 50.1893 56.7399 48.5001Z" transform="matrix(1 0 0 -1 700.5 414.689)"/><path d="M572.5 531.167 760.063 531.167 760.063 533.833 572.5 533.833ZM758.729 528.5 766.729 532.5 758.729 536.5Z"/><path d="M701.543 413.669 772.252 502.369 770.167 504.031 699.457 415.331ZM773.506 499.664 775.365 508.413 767.251 504.651Z"/><text font-family="Cambria Math,Cambria Math_MSFontService,sans-serif" font-weight="400" font-size="24" transform="translate(417.691 325)">ğ‘<tspan font-size="18" x="12.5733" y="5">ğ‘</tspan><tspan x="24.7867" y="0">ğ›¾ğ¼</tspan><tspan x="32.6278" y="76">ğ‘</tspan><tspan font-size="18" x="45.2012" y="81">ğ»</tspan><tspan x="59.8279" y="76">ğ›¾ğ¼</tspan><tspan x="-4.16739" y="183">ğ‘</tspan><tspan font-size="18" x="8.40594" y="188">ğ·</tspan><tspan x="22.326" y="183">ğ›¾ğ¼</tspan><tspan x="222.387" y="-33">ğ›¾</tspan><tspan font-size="18" x="234.254" y="-28">ğ‘</tspan><tspan x="246.467" y="-33">ğ‘</tspan><tspan font-size="18" x="259.934" y="-28">ğ‘</tspan><tspan x="165.769" y="7">ğ›¾</tspan><tspan font-size="18" x="177.635" y="12">ğ»</tspan><tspan x="192.262" y="7">ğ‘</tspan><tspan font-size="18" x="205.729" y="12">ğ»</tspan><tspan x="218.706" y="191">ğ›¾</tspan><tspan font-size="18" x="230.573" y="196">ğ·</tspan><tspan x="244.493" y="191">ğ‘</tspan><tspan font-size="18" x="257.959" y="196">ğ·</tspan><tspan x="164.762" y="71">ğ‘</tspan><tspan font-size="18" x="177.335" y="76">ğ¶</tspan><tspan x="189.762" y="71">ğ‘</tspan><tspan font-size="18" x="203.229" y="76">ğ»</tspan><tspan font-size="19" x="331.236" y="82">ğ‘“ğ›¾</tspan><tspan font-size="14" x="350.783" y="86">ğ¶</tspan><tspan font-size="19" x="360.489" y="82">ğ‘</tspan><tspan font-size="14" x="370.943" y="86">ğ¶</tspan><tspan font-size="19" x="331.07" y="137">(</tspan><tspan font-size="19" x="338.737" y="137">1</tspan><tspan font-size="19" x="353.217" y="137">âˆ’</tspan><tspan font-size="19" x="371.363" y="137">ğ‘“</tspan><tspan font-size="19" x="382.243" y="137">)</tspan><tspan font-size="19" x="389.91" y="137">ğ›¾</tspan><tspan font-size="14" x="399.123" y="141">ğ¶ğ·</tspan><tspan font-size="19" x="418.397" y="137">ğ‘</tspan><tspan font-size="14" x="428.85" y="141">ğ¶</tspan></text><path d="M541.167 380.78 541.167 340.5C541.167 339.764 541.764 339.167 542.5 339.167L750.331 339.167 750.331 341.833 542.5 341.833 543.833 340.5 543.833 380.78ZM748.998 336.5 756.998 340.5 748.998 344.5Z" fill="#0D0D0D"/><text font-family="Arial,Arial_MSFontService,sans-serif" font-weight="400" font-size="24" transform="translate(531.779 600)">zdravljeni</text></g></svg>